<?xml version="1.0" encoding="UTF-8"?>
<svg version="1.1" xmlns="http://www.w3.org/2000/svg" width="235" height="223">
<path d="M0 0 C77.55 0 155.1 0 235 0 C235 73.59 235 147.18 235 223 C157.45 223 79.9 223 0 223 C0 149.41 0 75.82 0 0 Z " fill="#EFF1F1" transform="translate(0,0)"/>
<path d="M0 0 C8.01994223 5.85674404 14.69573405 12.91553687 16.71875 22.875 C18.14829113 33.67597742 16.1197781 43.00219434 9.72265625 51.8984375 C4.38647527 58.40833629 -1.67363662 63.15091273 -10 65 C-18.94596416 65.87387565 -27.14746874 65.90993389 -35 61 C-36.093125 60.34 -37.18625 59.68 -38.3125 59 C-40.80432003 57.1456223 -42.96612925 55.34677394 -45 53 C-45 52.34 -45 51.68 -45 51 C-45.66 51 -46.32 51 -47 51 C-52.04079437 41.59051717 -55.10142656 32.08332829 -52.3125 21.35546875 C-48.50629789 11.03114552 -41.53075233 2.37466087 -31.5 -2.375 C-21.39213521 -6.03660094 -9.36781188 -5.31840766 0 0 Z " fill="#394342" transform="translate(171,76)"/>
<path d="M0 0 C4.37827512 3.68173135 8.28392141 7.36993356 8.98828125 13.328125 C9.17700406 19.00967497 8.37432945 22.85690232 4.75 27.3125 C0.2527375 31.8449891 -3.58397149 33.48154105 -9.9375 33.75 C-15.45872974 33.70320992 -18.58879136 32.684677 -22.69140625 29 C-27.44997502 23.84786539 -27.78645601 18.94688439 -27.6015625 12.15625 C-26.96896464 7.03923621 -24.48902624 4.48631433 -20.875 1.0625 C-14.03763714 -3.49574191 -7.24731074 -3.76302673 0 0 Z " fill="#3C4645" transform="translate(72.25,20.6875)"/>
<path d="M0 0 C5.33087655 -0.43695709 5.33087655 -0.43695709 8 0 C10.02829372 2.40859879 11 3.83044309 11 7 C22.22 7 33.44 7 45 7 C47 11 47 11 46.67626953 13.01464844 C46.41442871 13.7059082 46.15258789 14.39716797 45.8828125 15.109375 C45.50987061 16.1298291 45.50987061 16.1298291 45.12939453 17.17089844 C44.63221924 18.44755371 44.63221924 18.44755371 44.125 19.75 C43.09375 22.4725 42.0625 25.195 41 28 C32.42 28.33 23.84 28.66 15 29 C15 29.99 15 30.98 15 32 C27.87 32.495 27.87 32.495 41 33 C40.67 33.99 40.34 34.98 40 36 C35.72929442 36.08692074 31.45881542 36.14036515 27.1875 36.1875 C25.97255859 36.21263672 24.75761719 36.23777344 23.50585938 36.26367188 C21.76079102 36.27817383 21.76079102 36.27817383 19.98046875 36.29296875 C18.90692139 36.3086792 17.83337402 36.32438965 16.72729492 36.34057617 C14 36 14 36 12.13793945 34.6809082 C10.43534148 32.16591421 10.80321536 29.95176967 11 27 C11.99 26.67 12.98 26.34 14 26 C13.78794922 25.40985107 13.57589844 24.81970215 13.35742188 24.21166992 C12.4000549 21.53866976 11.44995415 18.86314307 10.5 16.1875 C10.16613281 15.25873047 9.83226562 14.32996094 9.48828125 13.37304688 C9.01455078 12.0340332 9.01455078 12.0340332 8.53125 10.66796875 C8.23798828 9.84578857 7.94472656 9.0236084 7.64257812 8.17651367 C7 6 7 6 7 3 C5.02 3 3.04 3 1 3 C0.67 2.01 0.34 1.02 0 0 Z " fill="#E8EBEB" transform="translate(128,88)"/>
<path d="M0 0 C7.92 0 15.84 0 24 0 C24.9375 9.625 24.9375 9.625 25.22631836 12.62353516 C25.66997796 17.11644004 26.18062644 21.55619024 27 26 C25.23569031 27.34195372 23.4633209 28.67331668 21.6875 30 C20.70136719 30.7425 19.71523437 31.485 18.69921875 32.25 C16 34 16 34 13 34 C3.25168084 24.85228819 0.41894272 12.84757682 0 0 Z " fill="#464F4E" transform="translate(51,90)"/>
<path d="M0 0 C0.33 0.99 0.66 1.98 1 3 C0.01 3.495 0.01 3.495 -1 4 C-1 6.64 -1 9.28 -1 12 C1.88167681 12.80652508 4.56031547 13.17515006 7.546875 13.31640625 C8.39121094 13.35830078 9.23554688 13.40019531 10.10546875 13.44335938 C11.41451172 13.50233398 11.41451172 13.50233398 12.75 13.5625 C13.63816406 13.60568359 14.52632812 13.64886719 15.44140625 13.69335938 C17.62745963 13.79913615 19.81362089 13.90122546 22 14 C22 14.66 22 15.32 22 16 C21.01 16.495 21.01 16.495 20 17 C19.65099442 20.71736641 19.65099442 20.71736641 21.5 23.8125 C21.995 24.204375 22.49 24.59625 23 25 C17.25 28 17.25 28 15 28 C15 28.66 15 29.32 15 30 C4.46808375 30.70868969 -2.53466705 28.29978266 -11 22 C-13.375 19.875 -13.375 19.875 -15 18 C-15 17.34 -15 16.68 -15 16 C-15.66 16 -16.32 16 -17 16 C-17.66 14.35 -18.32 12.7 -19 11 C-17.68 10.67 -16.36 10.34 -15 10 C-15 9.34 -15 8.68 -15 8 C-13.35 7.67 -11.7 7.34 -10 7 C-9.67 6.01 -9.34 5.02 -9 4 C-8.34 4.33 -7.68 4.66 -7 5 C-7.33 4.01 -7.66 3.02 -8 2 C-7.01 1.67 -6.02 1.34 -5 1 C-5 1.66 -5 2.32 -5 3 C-3.35 2.01 -1.7 1.02 0 0 Z " fill="#394342" transform="translate(141,111)"/>
<path d="M0 0 C7.92 0 15.84 0 24 0 C24 6.6 24 13.2 24 20 C16.3125 21.4375 16.3125 21.4375 13.91918945 21.88452148 C10.27464207 22.5669813 6.63377472 23.26177752 3 24 C-0.47720694 16.11833094 -0.0865127 8.47824497 0 0 Z " fill="#464F4E" transform="translate(78,90)"/>
<path d="M0 0 C0.89847656 0.00257812 1.79695313 0.00515625 2.72265625 0.0078125 C3.61855469 0.00523438 4.51445313 0.00265625 5.4375 0 C7.78515625 0.1328125 7.78515625 0.1328125 9.78515625 1.1328125 C9.80980913 5.81420504 9.82799364 10.49556009 9.84008789 15.17700195 C9.84512782 16.77075864 9.85195975 18.36451069 9.8605957 19.95825195 C9.87267624 22.24431503 9.8783878 24.53031717 9.8828125 26.81640625 C9.88797379 27.53307968 9.89313507 28.24975311 9.89845276 28.98814392 C9.89864888 30.70344922 9.84707632 32.41862516 9.78515625 34.1328125 C8.78515625 35.1328125 8.78515625 35.1328125 6.31640625 35.265625 C4.8159375 35.26175781 4.8159375 35.26175781 3.28515625 35.2578125 C2.28484375 35.26039062 1.28453125 35.26296875 0.25390625 35.265625 C-2.21484375 35.1328125 -2.21484375 35.1328125 -3.21484375 34.1328125 C-3.31567139 31.69620804 -3.35456978 29.28856549 -3.34765625 26.8515625 C-3.34861298 26.12287964 -3.3495697 25.39419678 -3.35055542 24.64343262 C-3.3512371 23.1000154 -3.34938363 21.55659533 -3.34521484 20.01318359 C-3.33986637 17.6428385 -3.34516017 15.27268291 -3.3515625 12.90234375 C-3.35090172 11.40624958 -3.34962055 9.91015553 -3.34765625 8.4140625 C-3.34968048 7.70052612 -3.35170471 6.98698975 -3.35379028 6.25183105 C-3.32476858 0.19936884 -3.32476858 0.19936884 0 0 Z " fill="#374140" transform="translate(89.21484375,47.8671875)"/>
<path d="M0 0 C1.74558018 5.23674055 2.36867303 9.4699046 2 15 C1.01 16.485 1.01 16.485 0 18 C-0.66 18 -1.32 18 -2 18 C-2.4640625 18.928125 -2.4640625 18.928125 -2.9375 19.875 C-3.625 21.25 -4.3125 22.625 -5 24 C-10.28 24 -15.56 24 -21 24 C-21 17.4 -21 10.8 -21 4 C-17.51692708 3.54427083 -14.03385417 3.08854167 -10.55078125 2.6328125 C-6.97045681 1.99473488 -3.56889068 0 0 0 Z " fill="#3B4544" transform="translate(126,63)"/>
<path d="M0 0 C2.8875 -0.061875 5.775 -0.12375 8.75 -0.1875 C9.65331055 -0.21481201 10.55662109 -0.24212402 11.48730469 -0.27026367 C15.00690893 -0.30684427 17.38801396 -0.31722212 20.5546875 1.32421875 C22 3 22 3 22.375 6 C22 9 22 9 20 12 C20.66 13.11375 21.32 14.2275 22 15.375 C24 18.75 24 18.75 24 21 C20.6875 21.3125 20.6875 21.3125 17 21 C15.04421883 18.60259082 14 17.12413392 14 14 C11.69 14 9.38 14 7 14 C7 16.31 7 18.62 7 21 C4.69 21 2.38 21 0 21 C0 14.07 0 7.14 0 0 Z " fill="#0E0E0E" transform="translate(143,163)"/>
<path d="M0 0 C9.9 0 19.8 0 30 0 C28 9 28 9 25 15 C18.07 15 11.14 15 4 15 C0 4.5 0 4.5 0 0 Z " fill="#3E4847" transform="translate(141,98)"/>
<path d="M0 0 C0 9.24 0 18.48 0 28 C-6.73185755 26.65362849 -10.73209671 23.39045843 -14.5546875 17.67578125 C-15.78193273 15.4790849 -16.91707337 13.270788 -18 11 C-18.37382813 10.31292969 -18.74765625 9.62585938 -19.1328125 8.91796875 C-20 7 -20 7 -20 4 C-13.05995733 1.59593293 -7.43498857 0 0 0 Z " fill="#3A4443" transform="translate(102,113)"/>
<path d="M0 0 C8.93089496 3.82752641 13.31651375 8.6942404 18 17 C18.90736037 19.35225649 19.47338375 21.52490361 20 24 C12.74807915 27.27047411 8.26492871 28 0 28 C0 18.76 0 9.52 0 0 Z " fill="#394342" transform="translate(105,36)"/>
<path d="M0 0 C8 0 8 0 10.3125 1.86328125 C11.1478125 3.07564453 11.1478125 3.07564453 12 4.3125 C12.5775 5.11300781 13.155 5.91351563 13.75 6.73828125 C15 9 15 9 15 12 C15.66 12 16.32 12 17 12 C17 8.04 17 4.08 17 0 C18.98 0 20.96 0 23 0 C23 6.93 23 13.86 23 21 C16 21 16 21 13.56640625 18.59375 C12.90511719 17.5728125 12.24382813 16.551875 11.5625 15.5 C10.54349609 13.96859375 10.54349609 13.96859375 9.50390625 12.40625 C9.00761719 11.6121875 8.51132812 10.818125 8 10 C7.67 13.63 7.34 17.26 7 21 C4.69 21 2.38 21 0 21 C0 14.07 0 7.14 0 0 Z " fill="#050505" transform="translate(44,163)"/>
<path d="M0 0 C2.97 0 5.94 0 9 0 C10.50626117 3.12202006 12.00393243 6.24808399 13.5 9.375 C13.92925781 10.26445312 14.35851562 11.15390625 14.80078125 12.0703125 C15.40986328 13.34648437 15.40986328 13.34648437 16.03125 14.6484375 C16.40830078 15.43395996 16.78535156 16.21948242 17.17382812 17.02880859 C18 19 18 19 18 21 C14.625 21.1875 14.625 21.1875 11 21 C10.34 20.01 9.68 19.02 9 18 C6.56306689 17.63583953 6.56306689 17.63583953 3.875 17.8125 C2.96492187 17.83957031 2.05484375 17.86664063 1.1171875 17.89453125 C0.41851562 17.92933594 -0.28015625 17.96414062 -1 18 C-1.33 18.99 -1.66 19.98 -2 21 C-4.31 21 -6.62 21 -9 21 C-6.76686274 13.55620912 -3.59727921 6.88023305 0 0 Z " fill="#101010" transform="translate(198,163)"/>
<path d="M0 0 C2.97 0 5.94 0 9 0 C10.34287473 2.74569923 11.67446996 5.49594266 13 8.25 C13.3815625 9.02730469 13.763125 9.80460938 14.15625 10.60546875 C14.5171875 11.35957031 14.878125 12.11367187 15.25 12.890625 C15.58515625 13.58188477 15.9203125 14.27314453 16.265625 14.98535156 C17 17 17 17 17 21 C14.125 21.1875 14.125 21.1875 11 21 C10.34 20.01 9.68 19.02 9 18 C6.56306689 17.63583953 6.56306689 17.63583953 3.875 17.8125 C2.96492188 17.83957031 2.05484375 17.86664063 1.1171875 17.89453125 C0.41851562 17.92933594 -0.28015625 17.96414062 -1 18 C-1.33 18.99 -1.66 19.98 -2 21 C-4.31 21 -6.62 21 -9 21 C-6.76686274 13.55620912 -3.59727921 6.88023305 0 0 Z " fill="#0E0E0E" transform="translate(123,163)"/>
<path d="M0 0 C8.97272727 0 8.97272727 0 11 1 C12.5546875 3.546875 12.5546875 3.546875 13.875 6.75 C14.32617188 7.79671875 14.77734375 8.8434375 15.2421875 9.921875 C16.13741948 13.55817809 15.80966433 14.77869136 14 18 C12.51953125 20.16796875 12.51953125 20.16796875 10.8125 22.1875 C10.26207031 22.86167969 9.71164063 23.53585938 9.14453125 24.23046875 C7 26 7 26 0 28 C0 18.76 0 9.52 0 0 Z " fill="#3A4443" transform="translate(105,113)"/>
<path d="M0 0 C3.0625 1.8125 3.0625 1.8125 5 4 C5 5.32 5 6.64 5 8 C2.125 8.125 2.125 8.125 -1 8 C-1.66 7.34 -2.32 6.68 -3 6 C-6.04182893 5.74994614 -6.04182893 5.74994614 -9 6 C-10.19695276 6.97910585 -10.19695276 6.97910585 -10.1328125 8.8125 C-10.13023438 9.534375 -10.12765625 10.25625 -10.125 11 C-10.12757812 11.721875 -10.13015625 12.44375 -10.1328125 13.1875 C-10.19695276 15.02089415 -10.19695276 15.02089415 -9 16 C-6.04182893 16.25005386 -6.04182893 16.25005386 -3 16 C-2.34 15.34 -1.68 14.68 -1 14 C2.125 13.875 2.125 13.875 5 14 C4.875 16.25 4.875 16.25 4 19 C0.76987645 21.84558503 -1.26466602 22.92259642 -5.5625 23.375 C-10.17486307 22.87183312 -12.74910294 22.04804889 -16.3125 19.0625 C-18.84637941 14.46397811 -19.03910891 10.12627061 -18 5 C-13.54460104 -1.3967797 -6.93463799 -1.57881425 0 0 Z " fill="#0E0F0F" transform="translate(107,162)"/>
<path d="M0 0 C7.59 0 15.18 0 23 0 C23 2.31 23 4.62 23 7 C21 8 21 8 17 8 C16.34 9.32 15.68 10.64 15 12 C14.34 12 13.68 12 13 12 C13 12.66 13 13.32 13 14 C11.35 14 9.7 14 8 14 C9.95216435 15.95216435 11.53199953 16.84826645 14 18 C14 19.32 14 20.64 14 22 C11.50935112 22.68707555 9.62113708 23 7 23 C0.73199048 16.47082342 0.4810946 8.56348384 0 0 Z " fill="#384241" transform="translate(51,91)"/>
<path d="M0 0 C1.34771484 -0.00386719 1.34771484 -0.00386719 2.72265625 -0.0078125 C4.9375 0.125 4.9375 0.125 5.9375 1.125 C6.03682153 2.82058726 6.06830007 4.52025747 6.0703125 6.21875 C6.07224609 7.76369141 6.07224609 7.76369141 6.07421875 9.33984375 C6.07035156 10.42394531 6.06648438 11.50804688 6.0625 12.625 C6.06636719 13.70910156 6.07023437 14.79320313 6.07421875 15.91015625 C6.07292969 16.94011719 6.07164063 17.97007813 6.0703125 19.03125 C6.06918457 19.98322266 6.06805664 20.93519531 6.06689453 21.91601562 C5.9375 24.125 5.9375 24.125 4.9375 25.125 C3.08462498 25.19726502 1.22916122 25.2088122 -0.625 25.1875 C-1.63691406 25.17847656 -2.64882812 25.16945313 -3.69140625 25.16015625 C-4.47386719 25.14855469 -5.25632812 25.13695313 -6.0625 25.125 C-7.31498502 22.62002996 -7.17624406 20.91646726 -7.16015625 18.1171875 C-7.15693359 17.13105469 -7.15371094 16.14492187 -7.15039062 15.12890625 C-7.14201172 14.09636719 -7.13363281 13.06382813 -7.125 12 C-7.12048828 10.95972656 -7.11597656 9.91945313 -7.11132812 8.84765625 C-7.09951952 6.27338038 -7.08305075 3.69921854 -7.0625 1.125 C-4.56110398 -0.12569801 -2.78857309 -0.00802467 0 0 Z " fill="#394342" transform="translate(75.0625,57.875)"/>
<path d="M0 0 C0.66 0.66 1.32 1.32 2 2 C0.7934375 2.61875 0.7934375 2.61875 -0.4375 3.25 C-3.14109718 4.73452331 -3.14109718 4.73452331 -3.8125 7.1875 C-3.9053125 8.0846875 -3.9053125 8.0846875 -4 9 C-3.01 9.33 -2.02 9.66 -1 10 C-1 10.99 -1 11.98 -1 13 C-3.31 12.67 -5.62 12.34 -8 12 C-8 12.99 -8 13.98 -8 15 C-6.865625 15.391875 -5.73125 15.78375 -4.5625 16.1875 C-1 18 -1 18 0.0625 20.5 C0 23 0 23 -2 26 C-2.99 26 -3.98 26 -5 26 C-5.33 27.32 -5.66 28.64 -6 30 C-6.66 29.67 -7.32 29.34 -8 29 C-8 28.01 -8 27.02 -8 26 C-9.32 25.34 -10.64 24.68 -12 24 C-11.67 23.34 -11.34 22.68 -11 22 C-8.36 22.33 -5.72 22.66 -3 23 C-3 21.68 -3 20.36 -3 19 C-4.27875 18.87625 -5.5575 18.7525 -6.875 18.625 C-10.75 18.25 -10.75 18.25 -13 16 C-13.125 13.375 -13.125 13.375 -13 11 C-13.721875 11.495 -14.44375 11.99 -15.1875 12.5 C-18.14848659 14.07919285 -19.71253029 14.28178312 -23 14 C-23.33 13.01 -23.66 12.02 -24 11 C-21.05798996 5.68175109 -17.7281343 2.3020641 -12.25 -0.3125 C-8.04714802 -1.20156484 -4.17598382 -1.03564399 0 0 Z " fill="#424B4A" transform="translate(69,19)"/>
<path d="M0 0 C2.31 0 4.62 0 7 0 C7.33 4.95 7.66 9.9 8 15 C12.60532389 16.45314664 12.60532389 16.45314664 15 15 C15.31241371 12.45058627 15.51303421 9.99638487 15.625 7.4375 C15.68300781 6.37112305 15.68300781 6.37112305 15.7421875 5.28320312 C15.83671783 3.52257575 15.91945817 1.76132272 16 0 C18.31 0 20.62 0 23 0 C23.0814222 2.22855574 23.13938079 4.45797655 23.1875 6.6875 C23.23970703 8.54955078 23.23970703 8.54955078 23.29296875 10.44921875 C22.98079211 14.23279962 22.2637203 16.00342061 20 19 C16.05581962 22.17725642 12.989034 22.52516147 8 22 C2.71908369 20.00720139 2.71908369 20.00720139 0.83984375 17.375 C-0.34846765 14.01456589 -0.2113559 10.76402073 -0.125 7.25 C-0.11597656 6.55261719 -0.10695313 5.85523438 -0.09765625 5.13671875 C-0.07419888 3.42433042 -0.03833104 1.71211996 0 0 Z " fill="#0F0F0F" transform="translate(17,163)"/>
<path d="M0 0 C5.33090641 3.44941003 8.18357292 8.44457339 11 14 C11 14.66 11 15.32 11 16 C9.948125 16.14695312 9.948125 16.14695312 8.875 16.296875 C2.4860522 17.30382873 -2.33499485 18.90999719 -8 22 C-8.66 22 -9.32 22 -10 22 C-10.33820166 20.4176994 -10.67035939 18.83410625 -11 17.25 C-11.2784375 15.92742187 -11.2784375 15.92742187 -11.5625 14.578125 C-12 12 -12 12 -12 8 C-10.13671875 6.3671875 -10.13671875 6.3671875 -7.6875 4.875 C-6.88699219 4.37742187 -6.08648437 3.87984375 -5.26171875 3.3671875 C-4.51535156 2.91601562 -3.76898438 2.46484375 -3 2 C-2.01 1.34 -1.02 0.68 0 0 Z " fill="#454F4E" transform="translate(141,53)"/>
<path d="M0 0 C0.33 0 0.66 0 1 0 C1 6.27 1 12.54 1 19 C-6.5 20.5 -6.5 20.5 -14 22 C-14.96550781 22.21785156 -15.93101563 22.43570313 -16.92578125 22.66015625 C-17.95251953 22.82837891 -17.95251953 22.82837891 -19 23 C-20 22 -20 22 -20.09765625 20.15234375 C-20.06510417 18.1015625 -20.03255208 16.05078125 -20 14 C-19.01 14.33 -18.02 14.66 -17 15 C-14.38118969 14.12706323 -13.27700429 13.50512548 -11.9375 11.0625 C-11.628125 10.381875 -11.31875 9.70125 -11 9 C-9.2543868 6.83876461 -8.13130234 6.04923838 -5.5 5.0625 C-2.62667887 3.84133852 -1.70223267 2.55334901 0 0 Z " fill="#384241" transform="translate(100,91)"/>
<path d="M0 0 C4.95 0 9.9 0 15 0 C15 1.65 15 3.3 15 5 C13.68 5 12.36 5 11 5 C11 8.63 11 12.26 11 16 C12.32 16 13.64 16 15 16 C15 17.65 15 19.3 15 21 C10.05 21 5.1 21 0 21 C0 19.35 0 17.7 0 16 C1.32 16 2.64 16 4 16 C4 12.37 4 8.74 4 5 C2.68 5 1.36 5 0 5 C0 3.35 0 1.7 0 0 Z " fill="#0E0E0E" transform="translate(71,163)"/>
<path d="M0 0 C4.62 0 9.24 0 14 0 C13.525625 1.2375 13.05125 2.475 12.5625 3.75 C10.64720307 9.41458103 10.29145449 15.06035843 10 21 C6.7 20.67 3.4 20.34 0 20 C0 13.4 0 6.8 0 0 Z " fill="#3A4443" transform="translate(105,90)"/>
<path d="M0 0 C7.26 0 14.52 0 22 0 C22 1.65 22 3.3 22 5 C19.69 5 17.38 5 15 5 C15 10.28 15 15.56 15 21 C12.69 21 10.38 21 8 21 C8 15.72 8 10.44 8 5 C5.36 5 2.72 5 0 5 C0 3.35 0 1.7 0 0 Z " fill="#101010" transform="translate(168,163)"/>
<path d="M0 0 C1.62610337 4.22786875 0.65453403 5.03639791 -1 10 C-9.58 10.33 -18.16 10.66 -27 11 C-27 11.99 -27 12.98 -27 14 C-14.13 14.495 -14.13 14.495 -1 15 C-1.33 15.99 -1.66 16.98 -2 18 C-6.27070558 18.08692074 -10.54118458 18.14036515 -14.8125 18.1875 C-16.63491211 18.22520508 -16.63491211 18.22520508 -18.49414062 18.26367188 C-20.23920898 18.27817383 -20.23920898 18.27817383 -22.01953125 18.29296875 C-23.09307861 18.3086792 -24.16662598 18.32438965 -25.27270508 18.34057617 C-28 18 -28 18 -29.86206055 16.6809082 C-31.56465852 14.16591421 -31.19678464 11.95176967 -31 9 C-30.01 8.67 -29.02 8.34 -28 8 C-28 6.68 -28 5.36 -28 4 C-27.01 4 -26.02 4 -25 4 C-25 4.99 -25 5.98 -25 7 C-21.58165767 7.00626726 -18.16752695 6.94666505 -14.75 6.875 C-13.78191406 6.87757812 -12.81382812 6.88015625 -11.81640625 6.8828125 C-6.72659339 6.91736074 -6.72659339 6.91736074 -2.43554688 4.60644531 C-1.16620565 2.8005921 -1.16620565 2.8005921 0 0 Z " fill="#EAEDED" transform="translate(170,106)"/>
<path d="M0 0 C2.94633882 2.542971 4.3314418 5.39014667 6 8.875 C7.8429676 12.70491704 9.75983894 16.38640686 12 20 C3.53884796 19.63212382 -3.90164937 14.69179392 -10 9 C-10 8.34 -10 7.68 -10 7 C-7.8125 5.2734375 -7.8125 5.2734375 -5 3.375 C-4.071875 2.74335937 -3.14375 2.11171875 -2.1875 1.4609375 C-1.1046875 0.73777344 -1.1046875 0.73777344 0 0 Z " fill="#414A49" transform="translate(78,119)"/>
<path d="M0 0 C8.74828951 2.12192554 17.78828297 5.24107722 23 13 C14.71052632 20 14.71052632 20 11 20 C10.45730469 18.89140625 9.91460937 17.7828125 9.35546875 16.640625 C8.63302726 15.17697731 7.91035908 13.7134415 7.1875 12.25 C6.83107422 11.52039062 6.47464844 10.79078125 6.10742188 10.0390625 C4.32469483 6.44089782 2.58911661 3.10367291 0 0 Z " fill="#3D4746" transform="translate(116,38)"/>
<path d="M0 0 C3.96 0 7.92 0 12 0 C12 4.95 12 9.9 12 15 C3.50390625 15.09765625 3.50390625 15.09765625 1 15 C0 14 0 14 -0.09765625 10.83984375 C-0.08025391 8.90818359 -0.08025391 8.90818359 -0.0625 6.9375 C-0.05347656 5.64714844 -0.04445312 4.35679688 -0.03515625 3.02734375 C-0.02355469 2.02832031 -0.01195312 1.02929688 0 0 Z " fill="#3A4443" transform="translate(51,68)"/>
<path d="M0 0 C0.33 0 0.66 0 1 0 C1 1.65 1 3.3 1 5 C3.64 5 6.28 5 9 5 C9 10.28 9 15.56 9 21 C8.34 20.34 7.68 19.68 7 19 C6.401875 19.33 5.80375 19.66 5.1875 20 C3 21 3 21 0 21 C-1.65 17.7 -3.3 14.4 -5 11 C-4.34 10.34 -3.68 9.68 -3 9 C-2.64984951 7.33678518 -2.31802943 5.66965451 -2 4 C-0.9375 1.6875 -0.9375 1.6875 0 0 Z " fill="#E5E7E7" transform="translate(167,163)"/>
<path d="M0 0 C2.5654594 2.5654594 2.54046087 4.47686668 3 8 C1.23569031 9.34195372 -0.5366791 10.67331668 -2.3125 12 C-3.29863281 12.7425 -4.28476563 13.485 -5.30078125 14.25 C-8 16 -8 16 -11 16 C-13.25 13.6875 -13.25 13.6875 -15 11 C-13.77974937 7.3392481 -12.873509 7.07660559 -9.5625 5.3125 C-8.75941406 4.87550781 -7.95632812 4.43851562 -7.12890625 3.98828125 C-5 3 -5 3 -3 3 C-3 2.34 -3 1.68 -3 1 C-2.01 0.67 -1.02 0.34 0 0 Z " fill="#3B4544" transform="translate(75,108)"/>
<path d="M0 0 C0.33 0.99 0.66 1.98 1 3 C1.99 3.66 2.98 4.32 4 5 C4 5.99 4 6.98 4 8 C1.69 7.67 -0.62 7.34 -3 7 C-3 7.99 -3 8.98 -3 10 C-1.865625 10.391875 -0.73125 10.78375 0.4375 11.1875 C4 13 4 13 5.0625 15.5 C5 18 5 18 3 21 C2.01 21 1.02 21 0 21 C-0.33 22.32 -0.66 23.64 -1 25 C-1.66 24.67 -2.32 24.34 -3 24 C-3 23.01 -3 22.02 -3 21 C-4.32 20.34 -5.64 19.68 -7 19 C-6.67 18.34 -6.34 17.68 -6 17 C-3.36 17.33 -0.72 17.66 2 18 C2 16.68 2 15.36 2 14 C0.081875 13.814375 0.081875 13.814375 -1.875 13.625 C-5.75 13.25 -5.75 13.25 -8 11 C-7.90928045 6.91762027 -7.22889048 5.26997339 -4.5625 2.125 C-2 0 -2 0 0 0 Z " fill="#DFE2E2" transform="translate(64,24)"/>
<path d="M0 0 C0.33 0 0.66 0 1 0 C1.144375 1.134375 1.28875 2.26875 1.4375 3.4375 C1.61171478 6.80777201 1.61171478 6.80777201 3 8 C5.95817107 8.25005386 5.95817107 8.25005386 9 8 C9.66 7.34 10.32 6.68 11 6 C14.125 5.875 14.125 5.875 17 6 C16.875 8.25 16.875 8.25 16 11 C12.76987645 13.84558503 10.73533398 14.92259642 6.4375 15.375 C1.95761745 14.88628554 -0.83363377 14.36746386 -3.8125 10.875 C-4.4003125 9.946875 -4.4003125 9.946875 -5 9 C-3.35 8.67 -1.7 8.34 0 8 C0 5.36 0 2.72 0 0 Z " fill="#323333" transform="translate(95,170)"/>
<path d="M0 0 C0.94875 0.350625 1.8975 0.70125 2.875 1.0625 C2.875 2.3825 2.875 3.7025 2.875 5.0625 C2.215 5.0625 1.555 5.0625 0.875 5.0625 C0.545 6.3825 0.215 7.7025 -0.125 9.0625 C-11.345 8.7325 -22.565 8.4025 -34.125 8.0625 C-34.125 7.7325 -34.125 7.4025 -34.125 7.0625 C-33.28690796 7.06419189 -33.28690796 7.06419189 -32.43188477 7.06591797 C-17.57616994 7.29242557 -17.57616994 7.29242557 -5.125 0.0625 C-3.125 -0.9375 -3.125 -0.9375 0 0 Z " fill="#4C5554" transform="translate(173.125,86.9375)"/>
<path d="M0 0 C0.89847656 0.00257812 1.79695313 0.00515625 2.72265625 0.0078125 C3.61855469 0.00523438 4.51445313 0.00265625 5.4375 0 C7.78515625 0.1328125 7.78515625 0.1328125 9.78515625 1.1328125 C9.78515625 12.0228125 9.78515625 22.9128125 9.78515625 34.1328125 C9.45515625 34.1328125 9.12515625 34.1328125 8.78515625 34.1328125 C8.45515625 23.9028125 8.12515625 13.6728125 7.78515625 3.1328125 C-0.14373693 7.12151551 -0.14373693 7.12151551 -2.21484375 12.1328125 C-2.54484375 12.1328125 -2.87484375 12.1328125 -3.21484375 12.1328125 C-3.24171654 10.32039198 -3.2611809 8.50786017 -3.27734375 6.6953125 C-3.28894531 5.68597656 -3.30054687 4.67664062 -3.3125 3.63671875 C-3.1880675 0.44626945 -3.16922213 0.19004154 0 0 Z " fill="#4B5453" transform="translate(89.21484375,47.8671875)"/>
<path d="M0 0 C0.33 0.66 0.66 1.32 1 2 C2.32 1.67 3.64 1.34 5 1 C5.66 2.65 6.32 4.3 7 6 C5.35 6.66 3.7 7.32 2 8 C1.34 7.34 0.68 6.68 0 6 C0 7.32 0 8.64 0 10 C-0.66 10 -1.32 10 -2 10 C-2.33 10.66 -2.66 11.32 -3 12 C-5.02543556 12.25719817 -7.05350224 12.50842122 -9.08984375 12.65625 C-11.23522156 12.85476212 -11.23522156 12.85476212 -13 15 C-13.33 13.02 -13.66 11.04 -14 9 C-13.154375 8.938125 -12.30875 8.87625 -11.4375 8.8125 C-7.21504161 7.81446438 -4.14116834 5.99406129 -1 3 C-0.67 2.01 -0.34 1.02 0 0 Z " fill="#E8EAEA" transform="translate(134,151)"/>
<path d="M0 0 C0.99 0.33 1.98 0.66 3 1 C4.1875 4.0625 4.1875 4.0625 5 7 C4.29875 7.09796875 3.5975 7.1959375 2.875 7.296875 C-3.5139478 8.30382873 -8.33499485 9.90999719 -14 13 C-14.66 13 -15.32 13 -16 13 C-16 12.01 -16 11.02 -16 10 C-15.34 9.67 -14.68 9.34 -14 9 C-13.34786708 6.97536745 -13.34786708 6.97536745 -13 5 C-12.34 5 -11.68 5 -11 5 C-11 5.66 -11 6.32 -11 7 C-9.68 6.34 -8.36 5.68 -7 5 C-7 4.01 -7 3.02 -7 2 C-6.21625 2.04125 -5.4325 2.0825 -4.625 2.125 C-1.83883881 2.28728734 -1.83883881 2.28728734 0 0 Z " fill="#434D4C" transform="translate(147,62)"/>
<path d="M0 0 C0.33 0 0.66 0 1 0 C1 9.24 1 18.48 1 28 C-4.625 26.875 -4.625 26.875 -7.8125 23.9375 C-8.41707031 23.38964844 -9.02164063 22.84179688 -9.64453125 22.27734375 C-10.09183594 21.85582031 -10.53914063 21.43429688 -11 21 C-8 19 -8 19 -1 19 C-0.67 12.73 -0.34 6.46 0 0 Z " fill="#485150" transform="translate(101,113)"/>
<path d="M0 0 C1.98 0 3.96 0 6 0 C6 4.95 6 9.9 6 15 C4.02 15 2.04 15 0 15 C0 10.05 0 5.1 0 0 Z " fill="#040404" transform="translate(17,163)"/>
<path d="M0 0 C2.97 0 5.94 0 9 0 C11 4 11 4 10.5390625 6.140625 C10.23742187 6.83671875 9.93578125 7.5328125 9.625 8.25 C9.32851562 8.95640625 9.03203125 9.6628125 8.7265625 10.390625 C8.48679688 10.92171875 8.24703125 11.4528125 8 12 C7.01 12 6.02 12 5 12 C5.48578543 8.87709365 5.9986012 6.00419641 7 3 C-2.9 3 -12.8 3 -23 3 C-23.33 3.66 -23.66 4.32 -24 5 C-24 4.01 -24 3.02 -24 2 C-16.08 2 -8.16 2 0 2 C0 1.34 0 0.68 0 0 Z " fill="#D7DADA" transform="translate(164,95)"/>
<path d="M0 0 C0.91007812 0.00902344 1.82015625 0.01804688 2.7578125 0.02734375 C3.45648438 0.03894531 4.15515625 0.05054688 4.875 0.0625 C4.4921875 1.984375 4.4921875 1.984375 3.875 4.0625 C1.29347698 5.78351535 0.02581975 6.0625 -3.125 6.0625 C-3.125 6.7225 -3.125 7.3825 -3.125 8.0625 C-4.115 8.5575 -4.115 8.5575 -5.125 9.0625 C-5.59501033 12.33805608 -5.59501033 12.33805608 -5.75 16.125 C-5.82476562 17.41535156 -5.89953125 18.70570312 -5.9765625 20.03515625 C-6.02554688 21.03417969 -6.07453125 22.03320312 -6.125 23.0625 C-6.455 23.0625 -6.785 23.0625 -7.125 23.0625 C-7.125 15.8025 -7.125 8.5425 -7.125 1.0625 C-4.60024538 -0.19987731 -2.81299534 -0.03606404 0 0 Z " fill="#626B6A" transform="translate(75.125,57.9375)"/>
<path d="M0 0 C4.62 0 9.24 0 14 0 C14 0.66 14 1.32 14 2 C12.68 2 11.36 2 10 2 C10.66 2.33 11.32 2.66 12 3 C12 5.64 12 8.28 12 11 C10.68 11 9.36 11 8 11 C7.731875 10.071875 7.46375 9.14375 7.1875 8.1875 C6.08851629 5.23759634 5.37581439 3.94384814 3 2 C3.33 3.32 3.66 4.64 4 6 C3.01 6 2.02 6 1 6 C0.67 4.02 0.34 2.04 0 0 Z " fill="#47504F" transform="translate(141,98)"/>
<path d="M0 0 C2.31 0 4.62 0 7 0 C6.75 2.375 6.75 2.375 6 5 C4.68352881 5.69937532 3.34977849 6.36729133 2 7 C1.19471111 9.05000871 1.19471111 9.05000871 1 11 C-1.99529289 10.00156904 -3.15840327 9.48615558 -5 7 C-4.6875 4.8125 -4.6875 4.8125 -4 3 C-3.01 3 -2.02 3 -1 3 C-0.67 2.01 -0.34 1.02 0 0 Z " fill="#E8EAEA" transform="translate(160,184)"/>
<path d="M0 0 C1.65 0.33 3.3 0.66 5 1 C4.6875 2.875 4.6875 2.875 4 5 C3.01 5.66 2.02 6.32 1 7 C0.27617533 9.05925139 0.27617533 9.05925139 0 11 C-2.99529289 10.00156904 -4.15840327 9.48615558 -6 7 C-5.6875 4.8125 -5.6875 4.8125 -5 3 C-3.68 3 -2.36 3 -1 3 C-0.67 2.01 -0.34 1.02 0 0 Z " fill="#E8EAEA" transform="translate(161,48)"/>
<path d="M0 0 C1.32 0 2.64 0 4 0 C4.33 1.32 4.66 2.64 5 4 C4.360625 4.4125 3.72125 4.825 3.0625 5.25 C0.79009069 7.17810487 0.39803561 8.11424181 0 11 C-3 10 -3 10 -6 8 C-5.67 6.35 -5.34 4.7 -5 3 C-4.01 3 -3.02 3 -2 3 C-1.34 2.01 -0.68 1.02 0 0 Z " fill="#E8EAEA" transform="translate(10,184)"/>
<path d="M0 0 C1.32 0 2.64 0 4 0 C4.33 1.32 4.66 2.64 5 4 C4.34 4.433125 3.68 4.86625 3 5.3125 C2.34 5.869375 1.68 6.42625 1 7 C1 7.99 1 8.98 1 10 C-0.8125 10.6875 -0.8125 10.6875 -3 11 C-4.8125 9.875 -4.8125 9.875 -6 8 C-5.6875 5.3125 -5.6875 5.3125 -5 3 C-4.01 3 -3.02 3 -2 3 C-1.34 2.01 -0.68 1.02 0 0 Z " fill="#E8EAEA" transform="translate(10,93)"/>
<path d="M0 0 C0.33 0 0.66 0 1 0 C1.33 1.98 1.66 3.96 2 6 C1.01 6 0.02 6 -1 6 C-1.61875 6.61875 -2.2375 7.2375 -2.875 7.875 C-5.15252718 10.15252718 -6.97619589 10.9920653 -10 12 C-11.5625 10.75 -11.5625 10.75 -13 9 C-12.6875 6.8125 -12.6875 6.8125 -12 5 C-11.01 5.33 -10.02 5.66 -9 6 C-9 6.99 -9 7.98 -9 9 C-8.34 9 -7.68 9 -7 9 C-7.33 7.68 -7.66 6.36 -8 5 C-7.34 5 -6.68 5 -6 5 C-5.67 4.34 -5.34 3.68 -5 3 C-4.34 3 -3.68 3 -3 3 C-1.97980427 2.0206121 -0.97850195 1.02104551 0 0 Z " fill="#E8EAEA" transform="translate(208,201)"/>
<path d="M0 0 C1.32 0.33 2.64 0.66 4 1 C3.67 2.65 3.34 4.3 3 6 C2.01 6 1.02 6 0 6 C0.33 6.99 0.66 7.98 1 9 C0.34 9.66 -0.32 10.32 -1 11 C-3.99332739 10.0022242 -4.94766315 9.2477975 -7 7 C-6.34 5.68 -5.68 4.36 -5 3 C-4.01 3 -3.02 3 -2 3 C-1.34 2.01 -0.68 1.02 0 0 Z " fill="#36403F" transform="translate(86,93)"/>
<path d="M0 0 C1.32 0 2.64 0 4 0 C4.33 1.32 4.66 2.64 5 4 C3.02 4.99 3.02 4.99 1 6 C1 6.99 1 7.98 1 9 C-0.98 9.99 -0.98 9.99 -3 11 C-4.5625 9.8125 -4.5625 9.8125 -6 8 C-5.6875 5.3125 -5.6875 5.3125 -5 3 C-3.68 3 -2.36 3 -1 3 C-0.67 2.01 -0.34 1.02 0 0 Z " fill="#E8EAEA" transform="translate(10,138)"/>
<path d="M0 0 C-0.33 1.32 -0.66 2.64 -1 4 C-2.32 4 -3.64 4 -5 4 C-4.67 5.65 -4.34 7.3 -4 9 C-5.32 9.33 -6.64 9.66 -8 10 C-8 9.34 -8 8.68 -8 8 C-8.99 7.34 -9.98 6.68 -11 6 C-10.8125 4.1875 -10.8125 4.1875 -10 2 C-6.42504907 -0.87982158 -4.37380275 -1.37462372 0 0 Z " fill="#E8EAEA" transform="translate(166,4)"/>
<path d="M0 0 C0.33 0.99 0.66 1.98 1 3 C-0.44632813 3.77923828 -0.44632813 3.77923828 -1.921875 4.57421875 C-3.19822448 5.27808795 -4.47424914 5.9825464 -5.75 6.6875 C-6.38421875 7.02716797 -7.0184375 7.36683594 -7.671875 7.71679688 C-11.69359261 9.95806658 -14.32359322 12.1408377 -17 16 C-17.66 14.35 -18.32 12.7 -19 11 C-17.68 10.67 -16.36 10.34 -15 10 C-15 9.34 -15 8.68 -15 8 C-13.35 7.67 -11.7 7.34 -10 7 C-9.67 6.01 -9.34 5.02 -9 4 C-8.34 4.33 -7.68 4.66 -7 5 C-7.33 4.01 -7.66 3.02 -8 2 C-7.01 1.67 -6.02 1.34 -5 1 C-5 1.66 -5 2.32 -5 3 C-3.35 2.01 -1.7 1.02 0 0 Z " fill="#434D4C" transform="translate(141,111)"/>
<path d="M0 0 C-0.125 2.8125 -0.125 2.8125 -1 6 C-3.8125 8 -3.8125 8 -7 9 C-9.375 8.1875 -9.375 8.1875 -11 7 C-8.57763975 1.42857143 -8.57763975 1.42857143 -6.0625 -0.4375 C-3.65554596 -1.09394201 -2.32545352 -0.83051911 0 0 Z " fill="#3E4847" transform="translate(60,20)"/>
<path d="M0 0 C-0.33 1.32 -0.66 2.64 -1 4 C-2.32 4 -3.64 4 -5 4 C-4.67 5.32 -4.34 6.64 -4 8 C-5.98 8.99 -5.98 8.99 -8 10 C-8 9.34 -8 8.68 -8 8 C-8.99 7.34 -9.98 6.68 -11 6 C-10.8125 4.1875 -10.8125 4.1875 -10 2 C-6.42504907 -0.87982158 -4.37380275 -1.37462372 0 0 Z " fill="#E8EAEA" transform="translate(15,4)"/>
<path d="M0 0 C2.64 0 5.28 0 8 0 C8.66 0.99 9.32 1.98 10 3 C7.75 4.5625 7.75 4.5625 5 6 C3.68 5.67 2.36 5.34 1 5 C1 10.28 1 15.56 1 21 C0.67 21 0.34 21 0 21 C0 14.07 0 7.14 0 0 Z " fill="#292A2A" transform="translate(44,163)"/>
<path d="M0 0 C-0.3125 1.875 -0.3125 1.875 -1 4 C-1.99 4.66 -2.98 5.32 -4 6 C-4.72382467 8.05925139 -4.72382467 8.05925139 -5 10 C-7.99529289 9.00156904 -9.15840327 8.48615558 -11 6 C-10.6875 3.8125 -10.6875 3.8125 -10 2 C-3.375 0 -3.375 0 0 0 Z " fill="#E8EAEA" transform="translate(166,139)"/>
<path d="M0 0 C1.32 0 2.64 0 4 0 C3.68762196 2.88949684 3.35661121 4.58633099 1.4375 6.8125 C-2.1419213 8.55632063 -5.04179842 8.19791008 -9 8 C-8.3125 6.125 -8.3125 6.125 -7 4 C-4.5 2.875 -4.5 2.875 -2 2 C-1.34 1.34 -0.68 0.68 0 0 Z " fill="#030303" transform="translate(108,176)"/>
<path d="M0 0 C0.33 0.66 0.66 1.32 1 2 C1.928125 1.7215625 1.928125 1.7215625 2.875 1.4375 C5 1 5 1 7 2 C6.67 3.65 6.34 5.3 6 7 C4.68 7.33 3.36 7.66 2 8 C2 7.34 2 6.68 2 6 C1.34 6.66 0.68 7.32 0 8 C0 8.66 0 9.32 0 10 C-0.99 9.67 -1.98 9.34 -3 9 C-3.6875 6.9375 -3.6875 6.9375 -4 5 C-2.68 4.67 -1.36 4.34 0 4 C-0.33 3.01 -0.66 2.02 -1 1 C-0.67 0.67 -0.34 0.34 0 0 Z " fill="#384241" transform="translate(134,106)"/>
<path d="M0 0 C2.5625 0.1875 2.5625 0.1875 4.5625 2.1875 C4.1875 4.8125 4.1875 4.8125 3.5625 7.1875 C1.1875 7.8125 1.1875 7.8125 -1.4375 8.1875 C-3.4375 6.1875 -3.4375 6.1875 -3.625 3.625 C-3.37291261 0.34786389 -3.27713611 0.25208739 0 0 Z " fill="#E0E2E2" transform="translate(145.4375,126.8125)"/>
<path d="M0 0 C0.33 0.66 0.66 1.32 1 2 C2.32 1.67 3.64 1.34 5 1 C5.66 2.65 6.32 4.3 7 6 C5.35 6.66 3.7 7.32 2 8 C2 7.34 2 6.68 2 6 C1.34 6.66 0.68 7.32 0 8 C0 8.66 0 9.32 0 10 C-0.99 9.67 -1.98 9.34 -3 9 C-2.44271087 5.65626525 -1.64826111 2.96687001 0 0 Z " fill="#36403F" transform="translate(134,61)"/>
<path d="M0 0 C2.9375 0.75 2.9375 0.75 6 2 C6.875 4.125 6.875 4.125 7 6 C5.02 6.99 5.02 6.99 3 8 C2.67 7.01 2.34 6.02 2 5 C1.34 5 0.68 5 0 5 C0.33 6.65 0.66 8.3 1 10 C-0.32 9.34 -1.64 8.68 -3 8 C-3 7.01 -3 6.02 -3 5 C-2.34 5 -1.68 5 -1 5 C-0.67 3.35 -0.34 1.7 0 0 Z " fill="#E8EAEA" transform="translate(209,16)"/>
<path d="M0 0 C2.875 -0.125 2.875 -0.125 6 0 C6.66 0.66 7.32 1.32 8 2 C7.625 4.125 7.625 4.125 7 6 C3 6 3 6 1 5 C1.33 6.32 1.66 7.64 2 9 C1.01 9 0.02 9 -1 9 C-1.33 7.35 -1.66 5.7 -2 4 C-1.34 3.67 -0.68 3.34 0 3 C0 2.01 0 1.02 0 0 Z " fill="#E8EAEA" transform="translate(57,198)"/>
<path d="M0 0 C1.5 1.3125 1.5 1.3125 3 3 C3 3.99 3 4.98 3 6 C-2.625 9 -2.625 9 -6 9 C-6 8.34 -6 7.68 -6 7 C-6.66 7 -7.32 7 -8 7 C-7.67 5.68 -7.34 4.36 -7 3 C-5.7934375 2.7834375 -5.7934375 2.7834375 -4.5625 2.5625 C-2.07896294 2.25864751 -2.07896294 2.25864751 -1 1 C-0.67 0.67 -0.34 0.34 0 0 Z " fill="#E8EAEA" transform="translate(128,22)"/>
<path d="M0 0 C0.99 0.33 1.98 0.66 3 1 C3.6875 3.0625 3.6875 3.0625 4 5 C2.35 5.33 0.7 5.66 -1 6 C-1 6.66 -1 7.32 -1 8 C-1.99 8.33 -2.98 8.66 -4 9 C-5.5625 7.75 -5.5625 7.75 -7 6 C-6.6875 3.8125 -6.6875 3.8125 -6 2 C-4.35 1.67 -2.7 1.34 -1 1 C-0.67 1.99 -0.34 2.98 0 4 C0 2.68 0 1.36 0 0 Z " fill="#E8EAEA" transform="translate(127,204)"/>
<path d="M0 0 C0.66 0 1.32 0 2 0 C2.66 1.65 3.32 3.3 4 5 C-1.17578125 8.22265625 -1.17578125 8.22265625 -3 9 C-6 8 -6 8 -8 5 C-8 4.01 -8 3.02 -8 2 C-6.68 2.33 -5.36 2.66 -4 3 C-4 3.99 -4 4.98 -4 6 C-3.34 6 -2.68 6 -2 6 C-2.33 4.35 -2.66 2.7 -3 1 C-2.34 1 -1.68 1 -1 1 C-0.67 1.33 -0.34 1.66 0 2 C0 1.34 0 0.68 0 0 Z " fill="#E8EAEA" transform="translate(52,204)"/>
<path d="M0 0 C1.98 0 3.96 0 6 0 C6.66 1.65 7.32 3.3 8 5 C7.34 5.66 6.68 6.32 6 7 C5.01 7 4.02 7 3 7 C2.34 6.34 1.68 5.68 1 5 C1 6.32 1 7.64 1 9 C0.01 8.67 -0.98 8.34 -2 8 C-2.6875 5.9375 -2.6875 5.9375 -3 4 C-2.01 3.67 -1.02 3.34 0 3 C0 2.01 0 1.02 0 0 Z " fill="#E7E9E9" transform="translate(133,198)"/>
<path d="M0 0 C0.33 0 0.66 0 1 0 C1.06058594 1.05960938 1.12117188 2.11921875 1.18359375 3.2109375 C1.26800127 4.59897221 1.35264917 5.98699232 1.4375 7.375 C1.47681641 8.07367188 1.51613281 8.77234375 1.55664062 9.4921875 C1.74280134 13.37360492 1.74280134 13.37360492 3 17 C2.0625 19.125 2.0625 19.125 1 21 C-1.4375 20.25 -1.4375 20.25 -4 19 C-4.8125 16.875 -4.8125 16.875 -5 15 C-3.35 15 -1.7 15 0 15 C0 10.05 0 5.1 0 0 Z " fill="#313131" transform="translate(23,163)"/>
<path d="M0 0 C1.32 0.99 2.64 1.98 4 3 C4 3.99 4 4.98 4 6 C2.3789897 6.69685498 0.75303934 7.38222861 -0.875 8.0625 C-1.77992187 8.44535156 -2.68484375 8.82820312 -3.6171875 9.22265625 C-6 10 -6 10 -8 9 C-5.36 6.03 -2.72 3.06 0 0 Z " fill="#4A5352" transform="translate(123,130)"/>
<path d="M0 0 C2.5 0.125 2.5 0.125 3.5 1.125 C3.6875 3.5625 3.6875 3.5625 3.5 6.125 C2.84 6.785 2.18 7.445 1.5 8.125 C-2.03571429 7.58928571 -2.03571429 7.58928571 -3.5 6.125 C-3.625 3.625 -3.625 3.625 -3.5 1.125 C-2.5 0.125 -2.5 0.125 0 0 Z " fill="#E8EBEA" transform="translate(163.5,126.875)"/>
<path d="M0 0 C0.66 1.32 1.32 2.64 2 4 C1.01 5.32 0.02 6.64 -1 8 C-0.01 8.33 0.98 8.66 2 9 C-6.42857143 12.42857143 -6.42857143 12.42857143 -11 12 C-11 11.34 -11 10.68 -11 10 C-10.37351563 9.69707031 -9.74703125 9.39414063 -9.1015625 9.08203125 C-3.92506039 6.56641118 -3.92506039 6.56641118 -0.4375 2.1875 C-0.293125 1.465625 -0.14875 0.74375 0 0 Z " fill="#434D4C" transform="translate(167,129)"/>
<path d="M0 0 C0.99 0.33 1.98 0.66 3 1 C3 2.65 3 4.3 3 6 C1.72125 6.12375 0.4425 6.2475 -0.875 6.375 C-4.34790936 6.69042399 -4.34790936 6.69042399 -7 9 C-7.33 7.02 -7.66 5.04 -8 3 C-6.576875 2.814375 -6.576875 2.814375 -5.125 2.625 C-1.91332809 2.28312823 -1.91332809 2.28312823 0 0 Z " fill="#EAECEC" transform="translate(128,157)"/>
<path d="M0 0 C0.66 0 1.32 0 2 0 C2.28875 0.61875 2.5775 1.2375 2.875 1.875 C3.93720042 4.13325765 3.93720042 4.13325765 6 6 C0.58461538 10.06153846 0.58461538 10.06153846 -2.375 9.75 C-2.91125 9.5025 -3.4475 9.255 -4 9 C-3.67 7.35 -3.34 5.7 -3 4 C-1.02 4.495 -1.02 4.495 1 5 C0.67 3.35 0.34 1.7 0 0 Z " fill="#E8EAEA" transform="translate(220,145)"/>
<path d="M0 0 C2.99324263 1.0975223 3.84610901 1.67682892 5.25 4.625 C5.4975 5.40875 5.745 6.1925 6 7 C5.01 7 4.02 7 3 7 C2.01 8.485 2.01 8.485 1 10 C-0.32 9.67 -1.64 9.34 -3 9 C-2.67 7.35 -2.34 5.7 -2 4 C-1.01 3.67 -0.02 3.34 1 3 C0.67 2.01 0.34 1.02 0 0 Z " fill="#E8EAEA" transform="translate(144,145)"/>
<path d="M0 0 C0.66 0 1.32 0 2 0 C2.28875 0.61875 2.5775 1.2375 2.875 1.875 C3.93720042 4.13325765 3.93720042 4.13325765 6 6 C0.58461538 10.06153846 0.58461538 10.06153846 -2.375 9.75 C-2.91125 9.5025 -3.4475 9.255 -4 9 C-4 7.68 -4 6.36 -4 5 C-2.68 4.67 -1.36 4.34 0 4 C0 3.67 0 3.34 0 3 C0 2.01 0 1.02 0 0 Z " fill="#E8EAEA" transform="translate(220,55)"/>
<path d="M0 0 C0.103125 0.639375 0.20625 1.27875 0.3125 1.9375 C0.6528125 2.9584375 0.6528125 2.9584375 1 4 C1.99 4.33 2.98 4.66 4 5 C3.67 6.65 3.34 8.3 3 10 C1.68 9.67 0.36 9.34 -1 9 C-1 7.68 -1 6.36 -1 5 C-5.62 5 -10.24 5 -15 5 C-15 4.67 -15 4.34 -15 4 C-10.05 4 -5.1 4 0 4 C0 2.68 0 1.36 0 0 Z " fill="#DBDDDD" transform="translate(86,180)"/>
<path d="M0 0 C0.66 0 1.32 0 2 0 C5 4.38461538 5 4.38461538 5 7 C2.09451118 9.04169485 0.59857954 10 -3 10 C-3.33 8.35 -3.66 6.7 -4 5 C-2.68 4.67 -1.36 4.34 0 4 C0 3.67 0 3.34 0 3 C0 2.01 0 1.02 0 0 Z " fill="#E8EAEA" transform="translate(69,145)"/>
<path d="M0 0 C0.33 0 0.66 0 1 0 C1 2.97 1 5.94 1 9 C-0.32 9.33 -1.64 9.66 -3 10 C-3.99 8.02 -4.98 6.04 -6 4 C-5.34 3.34 -4.68 2.68 -4 2 C-3.01 2 -2.02 2 -1 2 C-0.67 1.34 -0.34 0.68 0 0 Z " fill="#E8EAEA" transform="translate(85,49)"/>
<path d="M0 0 C1.32 0.66 2.64 1.32 4 2 C4 2.99 4 3.98 4 5 C3.360625 5.12375 2.72125 5.2475 2.0625 5.375 C1.381875 5.58125 0.70125 5.7875 0 6 C-0.33 6.66 -0.66 7.32 -1 8 C-1.66 8 -2.32 8 -3 8 C-4.98 4.535 -4.98 4.535 -7 1 C-5.02 1.99 -5.02 1.99 -3 3 C-2.01 2.01 -1.02 1.02 0 0 Z " fill="#E5E7E7" transform="translate(151,54)"/>
<path d="M0 0 C1.98 0 3.96 0 6 0 C6.33 0.99 6.66 1.98 7 3 C5.6078125 3.1546875 5.6078125 3.1546875 4.1875 3.3125 C0.96745642 4.0070192 -0.02579865 4.47740939 -2 7 C-2 5.68 -2 4.36 -2 3 C-2.99 2.67 -3.98 2.34 -5 2 C-4.01 1.67 -3.02 1.34 -2 1 C-1.34 1.33 -0.68 1.66 0 2 C0 1.34 0 0.68 0 0 Z " fill="#37403F" transform="translate(155,98)"/>
<path d="M0 0 C0.99 0 1.98 0 3 0 C5 3 5 3 4.625 5.6875 C4.41875 6.450625 4.2125 7.21375 4 8 C0.26360784 6.75453595 -0.18756513 5.36595047 -2 2 C-1.34 1.34 -0.68 0.68 0 0 Z " fill="#E8EAEA" transform="translate(81,141)"/>
<path d="M0 0 C-0.33 1.98 -0.66 3.96 -1 6 C-1.99 6.33 -2.98 6.66 -4 7 C-4.33 6.01 -4.66 5.02 -5 4 C-5.66 4 -6.32 4 -7 4 C-7 2.68 -7 1.36 -7 0 C-2.25 -1.125 -2.25 -1.125 0 0 Z " fill="#374140" transform="translate(127,70)"/>
<path d="M0 0 C0.99 0.66 1.98 1.32 3 2 C3.0562279 4.96528179 2.95683804 7.68850026 2.6875 10.625 C2.62626953 11.42679688 2.56503906 12.22859375 2.50195312 13.0546875 C2.34851492 15.03758124 2.17604307 17.01898519 2 19 C1.67 19 1.34 19 1 19 C1 14.71 1 10.42 1 6 C-2.63 6 -6.26 6 -10 6 C-10 5.67 -10 5.34 -10 5 C-6.37 5 -2.74 5 1 5 C0.34 3.68 -0.32 2.36 -1 1 C-0.67 0.67 -0.34 0.34 0 0 Z " fill="#C1C5C5" transform="translate(62,62)"/>
<path d="M0 0 C0.33 0.66 0.66 1.32 1 2 C1.61875 1.79375 2.2375 1.5875 2.875 1.375 C3.57625 1.25125 4.2775 1.1275 5 1 C5.66 1.66 6.32 2.32 7 3 C6.625 5.125 6.625 5.125 6 7 C4.68 7.33 3.36 7.66 2 8 C1.01 5.69 0.02 3.38 -1 1 C-0.67 0.67 -0.34 0.34 0 0 Z " fill="#E8EAEA" transform="translate(134,16)"/>
<path d="M0 0 C2.875 -0.125 2.875 -0.125 6 0 C8 2 8 2 8 6 C6.68 6.33 5.36 6.66 4 7 C2.02 3.535 2.02 3.535 0 0 Z " fill="#E8EAEA" transform="translate(208,198)"/>
<path d="M0 0 C0.99 0 1.98 0 3 0 C5 3 5 3 4.625 5.6875 C4.41875 6.450625 4.2125 7.21375 4 8 C0.41463415 6.80487805 0.41463415 6.80487805 -1.0625 3.9375 C-1.5265625 2.9784375 -1.5265625 2.9784375 -2 2 C-1.34 1.34 -0.68 0.68 0 0 Z " fill="#E7E9E9" transform="translate(81,187)"/>
<path d="M0 0 C2.875 -0.125 2.875 -0.125 6 0 C6.66 0.66 7.32 1.32 8 2 C7.625 4.125 7.625 4.125 7 6 C5.68 6 4.36 6 3 6 C2.01 4.02 1.02 2.04 0 0 Z " fill="#E8EAEA" transform="translate(208,152)"/>
<path d="M0 0 C2.9375 0.75 2.9375 0.75 6 2 C6.875 4.125 6.875 4.125 7 6 C5.02 6.99 5.02 6.99 3 8 C1.02 4.535 1.02 4.535 -1 1 C-0.67 0.67 -0.34 0.34 0 0 Z " fill="#E8EAEA" transform="translate(209,61)"/>
<path d="M0 0 C2.31 0 4.62 0 7 0 C6.67 1.65 6.34 3.3 6 5 C2.25 6.125 2.25 6.125 0 5 C0 3.35 0 1.7 0 0 Z " fill="#E1E3E3" transform="translate(160,184)"/>
<path d="M0 0 C2.64 0 5.28 0 8 0 C8 1.32 8 2.64 8 4 C5.36 4 2.72 4 0 4 C0 2.68 0 1.36 0 0 Z " fill="#D2D4D4" transform="translate(150,168)"/>
<path d="M0 0 C2.375 -0.125 2.375 -0.125 5 0 C5.66 0.66 6.32 1.32 7 2 C6.625 4.125 6.625 4.125 6 6 C4.68 6 3.36 6 2 6 C1.34 4.02 0.68 2.04 0 0 Z " fill="#E8EAEA" transform="translate(58,152)"/>
<path d="M0 0 C0.33 0 0.66 0 1 0 C1.22295635 2.39527434 1.42874063 4.79001341 1.625 7.1875 C1.68945312 7.86103516 1.75390625 8.53457031 1.8203125 9.22851562 C2.14362111 13.37090718 1.89095265 16.28305109 0 20 C-0.33 20 -0.66 20 -1 20 C-1.33 16.37 -1.66 12.74 -2 9 C-1.34 9 -0.68 9 0 9 C0 6.03 0 3.06 0 0 Z " fill="#D8DBDB" transform="translate(77,90)"/>
<path d="M0 0 C0.33 0 0.66 0 1 0 C1 4.29 1 8.58 1 13 C0.67 13 0.34 13 0 13 C0 11.02 0 9.04 0 7 C-0.61875 6.87625 -1.2375 6.7525 -1.875 6.625 C-4 6 -4 6 -6 4 C-6 3.01 -6 2.02 -6 1 C-3.53199953 2.15173355 -1.95216435 3.04783565 0 5 C0 3.35 0 1.7 0 0 Z " fill="#DBDEDE" transform="translate(50,69)"/>
<path d="M0 0 C2.00720923 0.28674418 4.0085944 0.61866701 6 1 C5.25 2.9375 5.25 2.9375 4 5 C1.875 5.75 1.875 5.75 0 6 C-0.38218767 4.34385343 -0.71395102 2.67542976 -1 1 C-0.67 0.67 -0.34 0.34 0 0 Z " fill="#384241" transform="translate(142,59)"/>
<path d="M0 0 C0.66 0.33 1.32 0.66 2 1 C2 3.64 2 6.28 2 9 C1.34 9 0.68 9 0 9 C-1.6875 7.25 -1.6875 7.25 -3 5 C-2.8125 2.8125 -2.8125 2.8125 -2 1 C-1.34 0.67 -0.68 0.34 0 0 Z " fill="#E8EAEA" transform="translate(233,5)"/>
<path d="M0 0 C3 1 3 1 5 4 C5 4.99 5 5.98 5 7 C4.34 7 3.68 7 3 7 C2.67 7.66 2.34 8.32 2 9 C1.34 9 0.68 9 0 9 C-0.33 7.35 -0.66 5.7 -1 4 C-0.34 4 0.32 4 1 4 C0.67 2.68 0.34 1.36 0 0 Z " fill="#374140" transform="translate(144,100)"/>
<path d="M0 0 C1.32 1.32 2.64 2.64 4 4 C3.01 4.99 2.02 5.98 1 7 C0.01 6.67 -0.98 6.34 -2 6 C-2.6875 3.9375 -2.6875 3.9375 -3 2 C-2.01 1.34 -1.02 0.68 0 0 Z " fill="#E8EAEA" transform="translate(203,22)"/>
<path d="M0 0 C0.99 0 1.98 0 3 0 C3 2.64 3 5.28 3 8 C2.34 8 1.68 8 1 8 C-0.625 6 -0.625 6 -2 4 C-1.34 2.68 -0.68 1.36 0 0 Z " fill="#E8EAEA" transform="translate(232,187)"/>
<path d="M0 0 C0.99 0 1.98 0 3 0 C3 2.64 3 5.28 3 8 C2.34 8 1.68 8 1 8 C-0.625 6 -0.625 6 -2 4 C-1.34 2.68 -0.68 1.36 0 0 Z " fill="#E8EAEA" transform="translate(232,96)"/>
<path d="M0 0 C0.66 0.66 1.32 1.32 2 2 C1 5 1 5 -2 7 C-4.1875 6.625 -4.1875 6.625 -6 6 C-2.25 1.125 -2.25 1.125 0 0 Z " fill="#3B4544" transform="translate(141,53)"/>
<path d="M0 0 C1.32 0.66 2.64 1.32 4 2 C4 2.99 4 3.98 4 5 C2.35 5.33 0.7 5.66 -1 6 C-1.625 4.125 -1.625 4.125 -2 2 C-1.34 1.34 -0.68 0.68 0 0 Z " fill="#E8EAEA" transform="translate(67,195)"/>
<path d="M0 0 C1.32 0.66 2.64 1.32 4 2 C3.67 3.32 3.34 4.64 3 6 C1.68 6 0.36 6 -1 6 C-1.625 4.125 -1.625 4.125 -2 2 C-1.34 1.34 -0.68 0.68 0 0 Z " fill="#E8EAEA" transform="translate(151,190)"/>
<path d="M0 0 C0.99 0 1.98 0 3 0 C3 2.64 3 5.28 3 8 C0.86906094 6.93453047 -0.36587557 5.70840281 -2 4 C-1.34 2.68 -0.68 1.36 0 0 Z " fill="#E8EAEA" transform="translate(232,141)"/>
<path d="M0 0 C0.99 0 1.98 0 3 0 C3 2.64 3 5.28 3 8 C0.86906094 6.93453047 -0.36587557 5.70840281 -2 4 C-1.34 2.68 -0.68 1.36 0 0 Z " fill="#E8EAEA" transform="translate(232,51)"/>
<path d="M0 0 C1.32 0 2.64 0 4 0 C4.33 1.32 4.66 2.64 5 4 C3.02 4.99 3.02 4.99 1 6 C0.34 5.34 -0.32 4.68 -1 4 C-0.625 1.875 -0.625 1.875 0 0 Z " fill="#E8EAEA" transform="translate(10,48)"/>
<path d="M0 0 C1.98 0.495 1.98 0.495 4 1 C4.33 2.65 4.66 4.3 5 6 C2.03 5.505 2.03 5.505 -1 5 C-0.67 3.35 -0.34 1.7 0 0 Z " fill="#E0E2E2" transform="translate(66,14)"/>
<path d="M0 0 C1.32 0 2.64 0 4 0 C4.33 1.32 4.66 2.64 5 4 C3.02 4.99 3.02 4.99 1 6 C0.34 5.34 -0.32 4.68 -1 4 C-0.625 1.875 -0.625 1.875 0 0 Z " fill="#E8EAEA" transform="translate(150,9)"/>
<path d="M0 0 C1.98 0.495 1.98 0.495 4 1 C3.67 2.65 3.34 4.3 3 6 C1.68 5.67 0.36 5.34 -1 5 C-0.67 3.35 -0.34 1.7 0 0 Z " fill="#E8EAEA" transform="translate(226,144)"/>
<path d="M0 0 C1.98 0.495 1.98 0.495 4 1 C3.67 2.65 3.34 4.3 3 6 C1.68 5.67 0.36 5.34 -1 5 C-0.67 3.35 -0.34 1.7 0 0 Z " fill="#E8EAEA" transform="translate(75,144)"/>
<path d="M0 0 C0.99 0.33 1.98 0.66 3 1 C3.33 1.99 3.66 2.98 4 4 C3.34 4.66 2.68 5.32 2 6 C-0.125 5.625 -0.125 5.625 -2 5 C-2 3.68 -2 2.36 -2 1 C-1.34 0.67 -0.68 0.34 0 0 Z " fill="#E8EAEA" transform="translate(218,104)"/>
<path d="M0 0 C1.32 0 2.64 0 4 0 C4 1.98 4 3.96 4 6 C2.68 6 1.36 6 0 6 C0 4.02 0 2.04 0 0 Z " fill="#C9CCCC" transform="translate(159,102)"/>
<path d="M0 0 C0.99 0.33 1.98 0.66 3 1 C3.33 1.99 3.66 2.98 4 4 C3.34 4.66 2.68 5.32 2 6 C-0.125 5.625 -0.125 5.625 -2 5 C-2 3.68 -2 2.36 -2 1 C-1.34 0.67 -0.68 0.34 0 0 Z " fill="#36403F" transform="translate(67,104)"/>
<path d="M0 0 C1.98 0.495 1.98 0.495 4 1 C3.67 2.65 3.34 4.3 3 6 C1.68 5.67 0.36 5.34 -1 5 C-0.67 3.35 -0.34 1.7 0 0 Z " fill="#E8EAEA" transform="translate(226,99)"/>
<path d="M0 0 C1.98 0.495 1.98 0.495 4 1 C3.67 2.65 3.34 4.3 3 6 C1.68 5.67 0.36 5.34 -1 5 C-0.67 3.35 -0.34 1.7 0 0 Z " fill="#E8EAEA" transform="translate(226,54)"/>
<path d="M0 0 C1.32 1.32 2.64 2.64 4 4 C3.01 4.99 2.02 5.98 1 7 C-0.32 6.34 -1.64 5.68 -3 5 C-2.01 3.35 -1.02 1.7 0 0 Z " fill="#36403F" transform="translate(52,22)"/>
<path d="M0 0 C1.98 0.495 1.98 0.495 4 1 C3.67 2.65 3.34 4.3 3 6 C1.68 5.67 0.36 5.34 -1 5 C-0.67 3.35 -0.34 1.7 0 0 Z " fill="#E8EAEA" transform="translate(226,9)"/>
<path d="M0 0 C1.98 0.495 1.98 0.495 4 1 C3.67 2.65 3.34 4.3 3 6 C1.68 5.67 0.36 5.34 -1 5 C-0.67 3.35 -0.34 1.7 0 0 Z " fill="#E8EAEA" transform="translate(75,9)"/>
<path d="M0 0 C0.99 0.33 1.98 0.66 3 1 C3.33 1.99 3.66 2.98 4 4 C3.34 4.66 2.68 5.32 2 6 C-0.125 5.625 -0.125 5.625 -2 5 C-1.125 1.125 -1.125 1.125 0 0 Z " fill="#E8EAEA" transform="translate(218,195)"/>
<path d="M0 0 C0.99 0.33 1.98 0.66 3 1 C2.67 2.65 2.34 4.3 2 6 C0.68 5.67 -0.64 5.34 -2 5 C-2 3.68 -2 2.36 -2 1 C-1.34 0.67 -0.68 0.34 0 0 Z " fill="#E8EAEA" transform="translate(227,190)"/>
<path d="M0 0 C0.99 0.33 1.98 0.66 3 1 C2.67 2.65 2.34 4.3 2 6 C0.68 5.67 -0.64 5.34 -2 5 C-2 3.68 -2 2.36 -2 1 C-1.34 0.67 -0.68 0.34 0 0 Z " fill="#E8EAEA" transform="translate(76,190)"/>
<path d="M0 0 C1.32 0.66 2.64 1.32 4 2 C4 2.99 4 3.98 4 5 C2.68 5.33 1.36 5.66 0 6 C-0.66 4.68 -1.32 3.36 -2 2 C-1.34 1.34 -0.68 0.68 0 0 Z " fill="#E7E9E9" transform="translate(151,144)"/>
<path d="M0 0 C1.9375 0.3125 1.9375 0.3125 4 1 C4.33 1.99 4.66 2.98 5 4 C3.02 4.99 3.02 4.99 1 6 C0.34 5.34 -0.32 4.68 -1 4 C-0.625 1.875 -0.625 1.875 0 0 Z " fill="#E8EAEA" transform="translate(217,14)"/>
<path d="M0 0 C2.0625 0.4375 2.0625 0.4375 4 1 C4 2.32 4 3.64 4 5 C2.68 5.33 1.36 5.66 0 6 C-0.38218767 4.34385343 -0.71395102 2.67542976 -1 1 C-0.67 0.67 -0.34 0.34 0 0 Z " fill="#E8EAEA" transform="translate(142,14)"/>
<path d="M0 0 C0.33 1.65 0.66 3.3 1 5 C-0.32 5.33 -1.64 5.66 -3 6 C-3.33 4.35 -3.66 2.7 -4 1 C-2 0 -2 0 0 0 Z " fill="#E8EAEA" transform="translate(145,195)"/>
<path d="M0 0 C1.32 0 2.64 0 4 0 C3.67 0.99 3.34 1.98 3 3 C4.65 3.33 6.3 3.66 8 4 C8 4.33 8 4.66 8 5 C1.47692308 5.36923077 1.47692308 5.36923077 -0.9375 3.5 C-1.4634375 2.7575 -1.4634375 2.7575 -2 2 C-1.34 1.34 -0.68 0.68 0 0 Z " fill="#232323" transform="translate(97,180)"/>
<path d="M0 0 C2.97 0 5.94 0 9 0 C8.01 0.33 7.02 0.66 6 1 C6 1.66 6 2.32 6 3 C4.02 3.66 2.04 4.32 0 5 C0 3.35 0 1.7 0 0 Z " fill="#374140" transform="translate(69,59)"/>
<path d="M0 0 C2.31 0 4.62 0 7 0 C5.38405168 2.04119788 3.7143618 4.04072937 2 6 C1.34 6 0.68 6 0 6 C0 4.02 0 2.04 0 0 Z " fill="#070707" transform="translate(198,163)"/>
<path d="M0 0 C2.31 0 4.62 0 7 0 C6.1875 1.9375 6.1875 1.9375 5 4 C4.01 4.33 3.02 4.66 2 5 C1.34 4.34 0.68 3.68 0 3 C0 2.01 0 1.02 0 0 Z " fill="#DEE1E1" transform="translate(85,139)"/>
<path d="M0 0 C1.9375 0.8125 1.9375 0.8125 4 2 C4.33 2.99 4.66 3.98 5 5 C2.03 5 -0.94 5 -4 5 C-3.34 4.54625 -2.68 4.0925 -2 3.625 C-1.34 3.08875 -0.68 2.5525 0 2 C0 1.34 0 0.68 0 0 Z " fill="#E9EBEB" transform="translate(58,62)"/>
<path d="M0 0 C1.32 0 2.64 0 4 0 C4 1.65 4 3.3 4 5 C2.35 4.67 0.7 4.34 -1 4 C-0.67 2.68 -0.34 1.36 0 0 Z " fill="#E8EAEA" transform="translate(86,3)"/>
<path d="M0 0 C3.63 0.66 7.26 1.32 11 2 C11 2.33 11 2.66 11 3 C9.72125 3.12375 8.4425 3.2475 7.125 3.375 C3.65209064 3.69042399 3.65209064 3.69042399 1 6 C0.67 4.02 0.34 2.04 0 0 Z " fill="#C4C6C6" transform="translate(120,160)"/>
<path d="M0 0 C1.32 0.33 2.64 0.66 4 1 C4 1.99 4 2.98 4 4 C4.66 4 5.32 4 6 4 C6 4.66 6 5.32 6 6 C5.01 6.33 4.02 6.66 3 7 C0 3.375 0 3.375 0 0 Z " fill="#E8EAEA" transform="translate(44,115)"/>
<path d="M0 0 C0.99 0 1.98 0 3 0 C3 2.31 3 4.62 3 7 C2.01 7 1.02 7 0 7 C0 4.69 0 2.38 0 0 Z " fill="#DEE1E1" transform="translate(150,102)"/>
<path d="M0 0 C2.31 0 4.62 0 7 0 C4.78065836 3.32901247 3.65316671 3.75023244 0 5 C0 3.35 0 1.7 0 0 Z " fill="#374140" transform="translate(78,91)"/>
<path d="M0 0 C0.66 0.33 1.32 0.66 2 1 C2 1.66 2 2.32 2 3 C-1.465 4.485 -1.465 4.485 -5 6 C-5 4.68 -5 3.36 -5 2 C-2.625 0.9375 -2.625 0.9375 0 0 Z " fill="#E4E7E7" transform="translate(139,71)"/>
<path d="M0 0 C1.32 0 2.64 0 4 0 C4 1.32 4 2.64 4 4 C4.66 4 5.32 4 6 4 C6 4.66 6 5.32 6 6 C3.13275314 5.42655063 2.1385485 5.1385485 0 3 C0 2.01 0 1.02 0 0 Z " fill="#E7E9E9" transform="translate(195,25)"/>
<path d="M0 0 C0.66 0 1.32 0 2 0 C2.66 1.98 3.32 3.96 4 6 C2.35 6 0.7 6 -1 6 C-0.67 4.02 -0.34 2.04 0 0 Z " fill="#C5C7C7" transform="translate(126,169)"/>
<path d="M0 0 C0.66 0 1.32 0 2 0 C2.66 1.32 3.32 2.64 4 4 C1.08291076 5.98362069 -0.12380904 5.9876191 -3.75 5.625 C-4.8225 5.41875 -5.895 5.2125 -7 5 C-7 4.67 -7 4.34 -7 4 C-4.36 4 -1.72 4 1 4 C0.67 2.68 0.34 1.36 0 0 Z " fill="#C8CACA" transform="translate(52,158)"/>
<path d="M0 0 C0.99 0.33 1.98 0.66 3 1 C3 1.99 3 2.98 3 4 C3.66 4 4.32 4 5 4 C5 4.66 5 5.32 5 6 C4.01 6.33 3.02 6.66 2 7 C0.4375 5.1875 0.4375 5.1875 -1 3 C-0.67 2.01 -0.34 1.02 0 0 Z " fill="#E8EAEA" transform="translate(196,70)"/>
<path d="M0 0 C0.66 0.33 1.32 0.66 2 1 C2.625 3.5625 2.625 3.5625 3 6 C2.34 6 1.68 6 1 6 C1 7.65 1 9.3 1 11 C0.67 11 0.34 11 0 11 C-0.19406478 9.35492782 -0.38007935 7.70890406 -0.5625 6.0625 C-0.66691406 5.14597656 -0.77132812 4.22945313 -0.87890625 3.28515625 C-0.91886719 2.53105469 -0.95882812 1.77695313 -1 1 C-0.67 0.67 -0.34 0.34 0 0 Z " fill="#D8DADA" transform="translate(128,67)"/>
<path d="M0 0 C0.66 0.33 1.32 0.66 2 1 C2 2.65 2 4.3 2 6 C0.68 6 -0.64 6 -2 6 C-1.125 1.125 -1.125 1.125 0 0 Z " fill="#C6C8C8" transform="translate(202,169)"/>
<path d="M0 0 C-0.33 1.32 -0.66 2.64 -1 4 C-2.32 4 -3.64 4 -5 4 C-5 3.01 -5 2.02 -5 1 C-3 0 -3 0 0 0 Z " fill="#DDDFDF" transform="translate(166,139)"/>
<path d="M0 0 C0.66 1.32 1.32 2.64 2 4 C1.01 5.32 0.02 6.64 -1 8 C-0.01 8.33 0.98 8.66 2 9 C0.68 9.33 -0.64 9.66 -2 10 C-3.39195915 5.82412255 -1.82323219 3.86525224 0 0 Z " fill="#596161" transform="translate(167,129)"/>
<path d="M0 0 C0.66 0 1.32 0 2 0 C2.66 1.65 3.32 3.3 4 5 C4.66 5 5.32 5 6 5 C6 5.66 6 6.32 6 7 C4.125 6.6875 4.125 6.6875 2 6 C0 3 0 3 0 0 Z " fill="#363F3E" transform="translate(69,100)"/>
<path d="M0 0 C1.98 0 3.96 0 6 0 C4.68 1.65 3.36 3.3 2 5 C1.01 4.34 0.02 3.68 -1 3 C-0.67 2.01 -0.34 1.02 0 0 Z " fill="#475150" transform="translate(161,98)"/>
<path d="M0 0 C1.98 0.99 1.98 0.99 4 2 C4 2.99 4 3.98 4 5 C2.68 5.33 1.36 5.66 0 6 C0 4.02 0 2.04 0 0 Z " fill="#E8EAEA" transform="translate(0,54)"/>
<path d="M0 0 C1.67542976 0.28604898 3.34385343 0.61781233 5 1 C4.34 1.66 3.68 2.32 3 3 C3 3.99 3 4.98 3 6 C2.01 5.67 1.02 5.34 0 5 C-0.75 3 -0.75 3 -1 1 C-0.67 0.67 -0.34 0.34 0 0 Z " fill="#E9EBEB" transform="translate(17,44)"/>
<path d="M0 0 C0.99 0 1.98 0 3 0 C3.33 1.32 3.66 2.64 4 4 C2.02 4.99 2.02 4.99 0 6 C0 4.02 0 2.04 0 0 Z " fill="#E8EAEA" transform="translate(0,9)"/>
<path d="M0 0 C1.98 0.99 1.98 0.99 4 2 C3.34 3.32 2.68 4.64 2 6 C1.34 6 0.68 6 0 6 C0 4.02 0 2.04 0 0 Z " fill="#E8EAEA" transform="translate(0,190)"/>
<path d="M0 0 C0.66 1.32 1.32 2.64 2 4 C-0.31 4 -2.62 4 -5 4 C-5.33 3.34 -5.66 2.68 -6 2 C-4.02 1.34 -2.04 0.68 0 0 Z " fill="#1E1E1E" transform="translate(165,180)"/>
<path d="M0 0 C1.69141656 0.08963062 3.37959602 0.24577676 5.0625 0.4375 C6.44115234 0.59025391 6.44115234 0.59025391 7.84765625 0.74609375 C8.55792969 0.82988281 9.26820313 0.91367188 10 1 C10 1.33 10 1.66 10 2 C8.72125 2.12375 7.4425 2.2475 6.125 2.375 C2.65209064 2.69042399 2.65209064 2.69042399 0 5 C-0.5625 3.0625 -0.5625 3.0625 -1 1 C-0.67 0.67 -0.34 0.34 0 0 Z " fill="#BEC0C0" transform="translate(196,161)"/>
<path d="M0 0 C1.98 0.99 1.98 0.99 4 2 C3.34 3.32 2.68 4.64 2 6 C1.34 6 0.68 6 0 6 C0 4.02 0 2.04 0 0 Z " fill="#E8EAEA" transform="translate(0,144)"/>
<path d="M0 0 C1.67542976 0.28604898 3.34385343 0.61781233 5 1 C4.34 1.66 3.68 2.32 3 3 C3.33 3.66 3.66 4.32 4 5 C2.68 5.33 1.36 5.66 0 6 C-0.38218767 4.34385343 -0.71395102 2.67542976 -1 1 C-0.67 0.67 -0.34 0.34 0 0 Z " fill="#E9EBEB" transform="translate(17,134)"/>
<path d="M0 0 C1.98 0 3.96 0 6 0 C4.37660195 1.70884005 2.70680947 3.37446717 1 5 C0.34 5 -0.32 5 -1 5 C-1 4.34 -1 3.68 -1 3 C-0.34 3 0.32 3 1 3 C0.67 2.01 0.34 1.02 0 0 Z " fill="#46504F" transform="translate(170,132)"/>
<path d="M0 0 C1.98 0.99 1.98 0.99 4 2 C3.34 3.32 2.68 4.64 2 6 C1.34 6 0.68 6 0 6 C0 4.02 0 2.04 0 0 Z " fill="#E8EAEA" transform="translate(0,99)"/>
<path d="M0 0 C1.32 0.66 2.64 1.32 4 2 C4 2.66 4 3.32 4 4 C2.02 4 0.04 4 -2 4 C-1.34 2.68 -0.68 1.36 0 0 Z " fill="#4B5454" transform="translate(148,65)"/>
<path d="M0 0 C1.98 0.495 1.98 0.495 4 1 C4 1.99 4 2.98 4 4 C2.35 4 0.7 4 -1 4 C-0.67 2.68 -0.34 1.36 0 0 Z " fill="#E8EAEA" transform="translate(75,54)"/>
<path d="M0 0 C-2.17424117 2.50037734 -3.73045798 3.43628586 -7 4 C-7.33 3.01 -7.66 2.02 -8 1 C-5.29120665 -0.35439668 -2.99066732 -0.06501451 0 0 Z " fill="#E9EBEB" transform="translate(99,44)"/>
<path d="M0 0 C2.99324263 1.0975223 3.84610901 1.67682892 5.25 4.625 C5.4975 5.40875 5.745 6.1925 6 7 C3.00675737 5.9024777 2.15389099 5.32317108 0.75 2.375 C0.5025 1.59125 0.255 0.8075 0 0 Z " fill="#E7E9E9" transform="translate(144,10)"/>
<path d="M0 0 C1.70884005 1.62339805 3.37446717 3.29319053 5 5 C5 5.66 5 6.32 5 7 C4.01 7 3.02 7 2 7 C1.01 5.02 0.02 3.04 -1 1 C-0.67 0.67 -0.34 0.34 0 0 Z " fill="#E7E9E9" transform="translate(145,191)"/>
<path d="M0 0 C0.66 0 1.32 0 2 0 C2.433125 1.2065625 2.433125 1.2065625 2.875 2.4375 C3.73262568 5.1326468 3.73262568 5.1326468 6 6 C4.68 6 3.36 6 2 6 C1.34 4.02 0.68 2.04 0 0 Z " fill="#E7E9E9" transform="translate(220,10)"/>
<path d="M0 0 C0.66 0 1.32 0 2 0 C2.433125 1.2065625 2.433125 1.2065625 2.875 2.4375 C3.73262568 5.1326468 3.73262568 5.1326468 6 6 C4.68 6 3.36 6 2 6 C1.34 4.02 0.68 2.04 0 0 Z " fill="#E7E9E9" transform="translate(69,10)"/>
</svg>
